<?xml version="1.0" encoding="utf-8"?>
<!-- Generator: Adobe Illustrator 23.1.0, SVG Export Plug-In . SVG Version: 6.00 Build 0)  -->
<svg version="1.1" id="Layer_1" xmlns="http://www.w3.org/2000/svg" xmlns:xlink="http://www.w3.org/1999/xlink" x="0px" y="0px"
	 viewBox="0 0 1000 340" style="enable-background:new 0 0 1000 340;" xml:space="preserve">
<style type="text/css">
	.st0{fill:#24305B;}
</style>
<g>
	<path class="st0" d="M964,1.9c-16.2,0-37.1-0.5-48.9-1.4l0,9.6c41.4,6.4,44,20.2,43.9,84.4l-0.1,113.5L780.4,0.4
		c-10.9,0.9-25.8,1.4-40.3,1.4c-13,0-27.5-0.5-36.3-1.4l0,9.6c26.3,1.4,31.2,6.3,31.1,41.3l-0.2,204.6c0,54.1-4.5,68.4-31.2,74.7
		l0,9.6c8.8-0.9,23.3-1.4,36.3-1.3c16.2,0,37.4,0.5,49.1,1.4l0-9.6c-41.6-6.4-44.2-20.2-44.1-84.4l0.1-138.3l193.5,232.4
		c5.8-0.5,11.1-0.7,16.5-0.7c5.1,0,10,0.2,14.3,0.7l0.2-255.5c0-54.1,4.3-68.4,31-74.7l0-9.6C991.5,1.5,977,1.9,964,1.9z"/>
	<path class="st0" d="M500.9,0.2c-17.9,0-48.9,0.9-70.2,1.4c-5.1,0-10.5,0.2-15.6,0.2c-23.3,0-46.1-1-59.8-1.7l0,9.6
		c26.3,1.4,31.2,6.3,31.1,41.3l-0.2,238.2c0,28.7-4.4,38.9-20.3,41.8c-47.2,1.7-44.6-2.9-60.5-38L184.4-0.1C179,0.7,173.3,1,167.6,1
		c-5.7,0-11.1-0.3-16.8-1.1L47,262.9c-18.3,45.8-30.9,62.8-46.8,65.5l0,11.2c10.1-1.1,25.9-1.6,39.1-1.6c23.2,0,41,0.6,66.2,1.7
		l0-11.2c-26.7-1.1-46.9-8.8-46.9-41.2c0-16.1,5-38.5,16.9-69.3l28.7,0c26.7,2.2,64.5,10,80.2,36l10.8,27.6
		c4.5,10.4,6.4,18.6,6.4,25.1c0,15-11.1,20.7-30.9,21.8l0,11.2c17.1-1,236.8-1.2,260.5-1.2c20,0,51.4,1.4,65.5,1.4
		c116.4,0.1,184.5-69,184.6-173.5C681.5,59.3,623.5,0.2,500.9,0.2z M79.9,206.7l43.1-110l43.2,110L79.9,206.7z M507.7,331.3
		c-27.1,0-32.9-7.8-32.9-41.3l0.2-240c0-33.1,5.8-41.3,32.5-41.2c57.2,0,82.2,51.9,82.1,159.5C589.6,272.8,567.3,331.4,507.7,331.3z
		"/>
</g>
</svg>
