<svg xmlns="http://www.w3.org/2000/svg" viewBox="0 0 1787.124 139.15"><defs><style>.cls-1{fill:#6573ae;}</style></defs><g id="Layer_2" data-name="Layer 2"><g id="Anchorage_Daily_News" data-name="Anchorage Daily News"><path class="cls-1" d="M978.326,133.4c-8.95,0-10.855-2.871-10.855-15.319V18.531c0-12.268,1.9-15.311,10.712-15.311,18.895,0,27.147,29.662,27.147,69.605,0,38.823-7.334,60.577-27,60.577M976,0c-5.911,0-16.141.348-23.184.524-1.7,0-3.457.085-5.154.085-7.675,0-15.222-.347-19.731-.609V3.568c8.666.522,10.288,2.348,10.288,15.318v98.848c0,12.97-1.481,14.8-10.288,15.32v3.578c5.49-.356,15.435-.531,25.16-.531,6.629,0,17,.531,21.642.531,38.422,0,60.9-25.682,60.9-64.489C1035.636,32.362,1016.465,0,976,0"/><path class="cls-1" d="M1124.612,28.27v3.576c8.68.509,10.3,2.261,10.3,15.312v70.576c0,12.97-1.481,14.8-10.3,15.32v3.578c5.227-.356,15.149-.531,25.023-.531,8.325,0,18.048.175,23.341.531v-3.578c-8.747-.523-10.223-2.35-10.223-15.32V47.158c0-13.051,1.476-14.8,10.223-15.312V28.27c-5.293.348-15.016.526-23.341.526-9.874,0-19.8-.178-25.023-.526"/><path class="cls-1" d="M1315.3,28.27v3.576c6.912.342,11.557,4,11.557,13.127,0,6.105-2.109,14.8-7.183,26.543L1316,80.127l-17.838-39.933a9.974,9.974,0,0,1-.981-3.658c0-3.736,4.235-4.522,8.463-4.522V28.27c-8.814.526-19.886,1.047-28.837,1.047a166.429,166.429,0,0,1-19.947-1.047v3.744c3.171.7,5.358,3.391,8.388,10l24.521,54.056V115.91c0,14.446-2.455,16.621-14.581,17.144v3.578c4.651-.356,19.17-.531,27.841-.531,8.254,0,23.822.175,29.188.531v-3.578c-12.127-.523-14.6-2.7-14.6-17.144V84.39l12.409-28.871c6.348-14.1,10.851-21.065,15.3-23.673V28.27a105.16,105.16,0,0,1-11.068.526c-6.7,0-11.7-.178-18.963-.526"/><path class="cls-1" d="M1260.062,93.8h-3.378c-4.167,28.56-15.308,38.733-26.509,38.733h-3.317c-5.071,0-7.4-1.391-7.4-11.22V47.158c0-13.056,1.478-14.8,10.219-15.312V28.267c-5.287.351-14.241.526-22.631.526-10.432,0-20.23-.175-25.73-.526v3.579c8.678.513,10.3,2.256,10.3,15.312v70.576c0,12.97-1.483,14.8-10.3,15.318v3.575c15.931-.526,37.857-.526,47.66-.526,9.233,0,22.276,0,31.643.526-.706-11.226-1.052-22.627-1.052-28.193,0-5.659.141-10.626.494-14.636"/><path class="cls-1" d="M1058.391,59.165l12.336,35.075h-24.6Zm52.1,62.484L1075.871,28.27a28.459,28.459,0,0,1-4.8.346,29.057,29.057,0,0,1-4.786-.346l-29.536,83.891c-5.219,14.633-8.81,20.025-13.327,20.891v3.575a105.251,105.251,0,0,1,11.142-.526c6.625,0,11.7.172,18.9.526v-3.575c-7.621-.346-13.4-2.786-13.4-13.133,0-5.147,1.413-12.283,4.8-22.111h8.2c7.614.695,18.411,3.169,22.9,11.452l3.1,8.823a22.96,22.96,0,0,1,1.827,8.009c0,4.792-3.166,6.614-8.805,6.96v3.575c5.5-.354,15.3-.526,25.725-.526,7.757,0,16.3.172,21.214.526v-3.575c-2.6-.173-5.356-3.22-8.52-11.4"/><path class="cls-1" d="M546.912,83.886h-3.877V47.163c0-12.281.986-15.32,6.344-15.32,10.439,0,13.888,9.4,13.888,26.02,0,14.454-2.745,26.023-16.355,26.023m49.844,45.431c-3.032,0-4.939-1.745-6.067-7.838l-3.032-15.659c-2.609-13.245-13.6-17.334-27.982-19.066-1.343-.262-2.473-.435-3.737-.6C584.274,82.918,592.1,69.185,592.1,55.86c0-17.058-12.268-27.413-42.011-27.413-4.024,0-14.385.349-24.675.349-7.477,0-15.856-.173-20.512-.526v3.573c8.67.519,10.287,2.081,10.287,15.32v70.571c0,12.97-1.478,14.8-10.287,15.32v3.57c4.656-.347,12.757-.523,21.36-.523,10.149,0,20.792.176,27,.523v-3.57c-8.6-.523-10.222-2.35-10.222-15.32V87.463h2.472c6.624,0,10.219,2.411,12.121,16.339l4.019,20.2c1.759,8.869,7.965,15.144,20.936,15.144,10.571,0,16.353-3.911,21.219-10.011l-1.975-2.345a7.791,7.791,0,0,1-5.071,2.523"/><path class="cls-1" d="M172.451,28.272v3.57c13.328,2.257,16.075,5.825,16.075,22.454V93.115l-46.1-64.843c-5.777.346-12.831.528-20.513.528a116.887,116.887,0,0,1-11.985-.528v3.57c8.671.517,10.288,2.257,10.288,15.321v63.431c0,16.536-1.474,20.115-10.288,22.46v3.566a117.822,117.822,0,0,1,11.985-.517c6.7,0,12.9.173,17.622.517v-3.566c-13.247-2.345-16-5.924-16-22.46V54.81l57.738,81.81q2.64-.25,5.287-.253c1.756,0,3.595.086,5.283.253V54.3c0-16.629,1.417-20.2,10.225-22.454v-3.57a115.864,115.864,0,0,1-11.981.528c-6.63,0-12.831-.182-17.629-.528"/><path class="cls-1" d="M873.17,99.2h-3.38c-4.165,24.806-13.82,33.334-26.5,33.334h-3.315c-5.076,0-7.4-1.221-7.4-9.495V83.88h3.31c9.944,0,15.439,9.406,16.781,19.922h3.31c-.7-10.858-.845-16.883-.845-21.739,0-2.277-.066-4.889-.066-8.1,0-3.579.066-8.016.49-13.674h-3.315c-1.34,8.272-6.06,20.035-16.355,20.035h-3.31V41.76c0-8.183,2.326-9.4,7.4-9.4h1.834c12.265,0,21.075,7.666,25.093,29.765h3.381a96.767,96.767,0,0,1-.489-11.049c0-4.448.35-13.748,1.054-22.806-8.527.521-20.374.521-28.759.521-9.8,0-31.724,0-47.655-.521v3.571c8.673.519,10.3,2.256,10.3,15.315v70.576c0,12.97-1.478,14.8-10.3,15.32v3.566c15.931-.519,37.859-.519,47.655-.519,9.233,0,22.276,0,31.653.519-.709-9.824-1.06-19.746-1.06-24.633,0-4.941.139-9.391.492-12.787"/><path class="cls-1" d="M283.336,97.382h-3.315c-1.483,12.7-2.609,18.529-6.695,24.617-4.867,7.316-12.125,11.755-19.176,11.755-14.589,0-26.153-17.843-26.153-50.925,0-32.281,9.869-51.683,25.169-51.683,7.047,0,13.532,4.786,18.606,11.753,4.021,5.483,5.222,9.748,7.194,22.791h3.308c0-18.877.141-29.413.638-37.418h-3.388c-.07,1.045-.156,1.994-.258,2.879-2.163,4.628-9.362,1.812-13.868-.56a27.33,27.33,0,0,0-3.24-1.862l-.5-.32.109.121a32.628,32.628,0,0,0-14.1-2.781c-27.135,0-48.5,23.148-48.5,57.793,0,35.407,20.661,55.6,48.931,55.6a33.281,33.281,0,0,0,14.455-3.122l-.027.037a.915.915,0,0,1,.088-.056,33.85,33.85,0,0,0,4.535-2.582c4.655-2.313,11.374-4.611,13.181.286.1.895.188,1.851.259,2.91H283.9C283.477,128.271,283.336,117.217,283.336,97.382Z"/><path class="cls-1" d="M25.237,85.272,39.13,33.756,52.238,85.272Zm70.216,36.377L60.488,0a68.32,68.32,0,0,1-7.543.348A70.581,70.581,0,0,1,45.331,0L13.262,112.166C8.68,126.964,4.445,132.189,0,133.054v3.57a106.375,106.375,0,0,1,11.14-.523c6.63,0,11.7.176,18.9.523v-3.57c-7.686-.348-13.052-2.52-13.052-12.968,0-5.314,1.41-12.79,4.647-23.242l2.477-7.993h8.761c8.775.821,21.44,3.98,24.745,15.05l.032-.014,4.172,14.2a30.956,30.956,0,0,1,1.768,8.447c0,4.872-3.314,6.176-10.153,6.524v3.57c5.146-.347,14.455-.523,24.246-.523,9.523,0,19.316.176,26.3.523v-3.57c-2.606-.179-5.921-3.222-8.527-11.4"/><path class="cls-1" d="M353.717,28.272v3.57c8.673.517,10.293,2.257,10.293,15.321V80.328h-32.5V47.163c0-13.064,1.478-14.8,10.222-15.321v-3.57c-5.848.346-16,.528-25.523.528-9.231,0-17.9-.182-22.836-.528v3.57c8.671.517,10.291,2.257,10.291,15.321v70.571c0,12.975-1.481,14.8-10.291,15.32v3.566c4.932-.344,13.605-.517,22.836-.517,9.519,0,19.675.173,25.523.517v-3.566c-8.6-.52-10.222-2.345-10.222-15.32V83.88h32.5v33.854c0,12.975-1.484,14.8-10.293,15.32v3.566c5.923-.344,16.072-.517,25.59-.517,9.234,0,17.9.173,22.841.517v-3.566c-8.673-.52-10.292-2.345-10.292-15.32V47.163c0-13.064,1.478-14.8,10.292-15.321v-3.57c-4.937.346-13.607.528-22.841.528-9.518,0-19.667-.182-25.59-.528"/><path class="cls-1" d="M640.37,59.165,652.706,94.24H628.1Zm52.092,62.484L657.85,28.27a28.707,28.707,0,0,1-4.793.353,29.352,29.352,0,0,1-4.8-.353l-29.533,83.9c-5.22,14.628-8.812,20.023-13.323,20.888v3.57a107,107,0,0,1,11.133-.523c6.63,0,11.7.176,18.893.523v-3.57c-7.611-.348-13.394-2.788-13.394-13.137,0-5.145,1.413-12.276,4.8-22.111h8.112c7.692.7,18.645,3.2,23.07,11.709l3.006,8.568a23.212,23.212,0,0,1,1.831,8.006c0,4.795-3.173,6.617-8.809,6.965v3.57c5.5-.347,15.293-.523,25.729-.523,7.753,0,16.282.176,21.217.523v-3.57c-2.607-.179-5.356-3.222-8.53-11.4"/><path class="cls-1" d="M452.855,135.929c-12.836,0-23.265-20.539-23.265-53.1,0-31.575,8.668-53.862,22.278-53.862,12.831,0,23.192,20.546,23.192,53.1,0,31.584-8.605,53.866-22.2,53.866m-.426-110.18c-30.309,0-51.674,23.148-51.674,57.793,0,35.407,20.659,55.6,51.532,55.6,30.318,0,51.674-23.237,51.674-57.8,0-35.406-20.657-55.6-51.532-55.6"/><path class="cls-1" d="M742.09,85.985v3.558c11,.525,13.179,2.691,13.179,17.135v17.5c0,3.564-.707,6.176-2.051,8.179a7.692,7.692,0,0,1-6.338,3.217c-17.2,0-26.438-15.918-26.438-53,0-30.8,12.546-51.08,32.644-51.08,8.532,0,13.744,5.484,18.328,11.41,3.948,5.651,5.921,13.126,7.258,20.973h3.313c0-17.935.143-27.943.567-35.605H779.24c-.568,7.575-1.7,10.788-3.6,10.788-.774,0-1.763-.6-2.891-1.73-6.837-6.006-13.186-11.579-26.577-11.579-32.077,0-54.557,22.628-54.557,58.842,0,34.358,19.733,54.556,52.938,54.556,11.422,0,20.8-5.048,24.392-7.312,3.027-2,5.5-3.391,7.679-3.391,2.472,0,3.315,4.61,3.6,8.18h2.887V104.855c0-13.132.842-14.787,5.923-15.312V85.985c-4.586.334-12.132.595-20.8.595-8.247,0-19.175-.261-26.148-.595"/><path class="cls-1" d="M1684.123,28.272v3.57c7.261.346,11.635,4.694,11.635,15.575,0,6.443-1.556,15.235-5.01,26.8l-8.6,28.812-16.784-56.22a28.822,28.822,0,0,1-1.407-7.753c0-4.784,2.606-6.87,8.315-7.216v-3.57c-5.21.346-14.446.528-24.244.528-7.755,0-16.292-.182-21.219-.528v3.57c2.6.172,6.057,3.744,8.53,11.4l7.962,23.929-11.07,34.9-18.954-55.257a23.027,23.027,0,0,1-1.344-7.229c0-4.614,2.111-7.394,5.353-7.74v-3.57c-4.932.346-13.6.528-22.836.528-7.752,0-16.282-.182-21.219-.528v3.57c2.6.172,5.359,3.216,8.522,11.4l33.913,93.379a30.7,30.7,0,0,1,4.794-.436,31.447,31.447,0,0,1,4.79.436l19.812-64.047,21.289,64.047a30.665,30.665,0,0,1,4.791-.436,29.9,29.9,0,0,1,4.727.436L1699.7,56.742c4.508-14.98,10.015-22.286,14.455-24.9v-3.57a106.165,106.165,0,0,1-11.143.528c-6.622,0-11.688-.182-18.886-.528"/><path class="cls-1" d="M1759.982,69.442c-14.1-11.054-23.54-18.018-23.54-27.85,0-6.88,5.772-11.577,15.013-11.577,14.032,0,25.026,12,27.775,36.895h3.308c0-24.543.287-32.984.711-39.946h-3.315c-.562,5.05-1.337,7.919-3.166,7.919-1.347,0-2.611-.957-4.942-2.524a38.3,38.3,0,0,0-21.918-6.61c-21.5,0-37.222,9.83-37.222,29.592,0,17.309,14.523,29.762,30.878,41.864,12.4,9.473,17.762,14.788,17.762,23.759,0,9.92-7.686,13.657-14.874,13.657-18.188,0-29.18-15.672-30.6-43.065h-3.378c0,27.221-.149,38.276-.563,46.288h3.308c.633-5.141,1.342-7.838,3.173-7.838,1.2,0,2.607.706,5.079,2.007,5.353,2.608,13.325,7.134,23.963,7.134,23.4,0,39.688-10.186,39.688-30.284C1787.124,89.71,1773.173,79.021,1759.982,69.442Z"/><path class="cls-1" d="M1568.08,99.2h-3.388c-4.15,24.806-13.809,33.334-26.5,33.334h-3.315c-5.073,0-7.4-1.221-7.4-9.495V83.88h3.315c9.94,0,15.437,9.406,16.784,19.922h3.31c-.7-10.858-.846-16.883-.846-21.739,0-2.277-.08-4.889-.08-8.1,0-3.579.08-8.016.5-13.674h-3.308c-1.344,8.272-6.071,20.035-16.357,20.035h-3.315V41.76c0-8.183,2.329-9.4,7.4-9.4h1.841c12.251,0,21.066,7.666,25.087,29.765h3.388a93.524,93.524,0,0,1-.5-11.049c0-4.448.358-13.748,1.062-22.806-8.529.521-20.371.521-28.757.521-9.8,0-31.726,0-47.661-.521v3.571c8.668.519,10.292,2.256,10.292,15.315v70.576c0,12.97-1.486,14.8-10.292,15.32v3.566c15.935-.519,37.863-.519,47.661-.519,9.229,0,22.271,0,31.643.519-.7-9.824-1.052-19.746-1.052-24.633,0-4.941.137-9.391.492-12.787"/><path class="cls-1" d="M1464.441,0v3.57c13.674,2.344,14.526,7.475,14.526,31.323V87.463L1419.958,0c-3.593.344-8.527.517-13.318.517a118.02,118.02,0,0,1-12-.517v3.57c8.676.515,10.3,2.344,10.3,15.312V105.29c0,20.111-1.483,25.419-10.3,27.764v3.566a118.02,118.02,0,0,1,12-.517c5.349,0,12.329.173,16.2.517v-3.566c-13.737-2.345-14.587-7.485-14.587-31.327V39.945l63.932,96.675c1.912-.167,3.673-.253,5.429-.253a40.988,40.988,0,0,1,4.725.253V31.329c0-20.1,1.408-25.413,10.227-27.757V0a117.76,117.76,0,0,1-11.986.517c-5.353,0-12.265-.173-16.143-.517"/></g></g></svg>